<svg width="40" height="38" viewBox="0 0 40 38" fill="none" xmlns="http://www.w3.org/2000/svg">
<rect width="40" height="38" rx="8" fill="#334155"/>
<path d="M20.0009 16.25C18.4816 16.25 17.2509 17.4812 17.2509 19C17.2509 20.5192 18.4821 21.75 20.0009 21.75C21.5201 21.75 22.7509 20.5189 22.7509 19C22.7509 17.4808 21.5197 16.25 20.0009 16.25ZM20.0009 14.4167C22.5313 14.4167 24.5842 16.4674 24.5842 19C24.5842 21.5305 22.5336 23.5834 20.0009 23.5834C17.4705 23.5834 15.4176 21.5327 15.4176 19C15.4176 16.4696 17.4682 14.4167 20.0009 14.4167ZM25.9592 14.1868C25.9592 14.8194 25.4452 15.3326 24.8134 15.3326C24.1808 15.3326 23.6676 14.8186 23.6676 14.1868C23.6676 13.5549 24.1816 13.0417 24.8134 13.0417C25.4444 13.0409 25.9592 13.5549 25.9592 14.1868ZM20.0009 11.6667C17.7326 11.6667 17.3629 11.6727 16.3079 11.7197C15.5891 11.7534 15.1073 11.8501 14.6596 12.0239C14.2618 12.1782 13.9748 12.3624 13.6691 12.6682C13.3621 12.9752 13.1782 13.2614 13.0245 13.6594C12.8503 14.1081 12.7537 14.5891 12.7205 15.3069C12.6731 16.319 12.6676 16.6727 12.6676 19C12.6676 21.2683 12.6736 21.638 12.7205 22.6929C12.7543 23.4114 12.8511 23.8939 13.0245 24.3405C13.1792 24.7389 13.3638 25.0266 13.6681 25.3309C13.9762 25.6386 14.2633 25.8232 14.6575 25.9753C15.1107 26.1505 15.5922 26.2473 16.3078 26.2804C17.3198 26.3278 17.6735 26.3334 20.0009 26.3334C22.2692 26.3334 22.6389 26.3273 23.6938 26.2804C24.4107 26.2467 24.8936 26.1497 25.3414 25.9764C25.7387 25.8221 26.0273 25.6369 26.3318 25.3328C26.64 25.0242 26.8241 24.7378 26.9765 24.3426C27.1512 23.8912 27.2482 23.409 27.2813 22.6932C27.3287 21.6811 27.3342 21.3274 27.3342 19C27.3342 16.7318 27.3282 16.3621 27.2813 15.3071C27.2475 14.59 27.1505 14.1064 26.977 13.6588C26.8231 13.2621 26.6382 12.9742 26.3327 12.6682C26.0252 12.3608 25.7398 12.1772 25.3415 12.0237C24.8932 11.8496 24.4114 11.7528 23.694 11.7197C22.682 11.6723 22.3282 11.6667 20.0009 11.6667ZM20.0009 9.83337C22.4911 9.83337 22.8021 9.84254 23.7799 9.88837C24.7553 9.93345 25.4207 10.0877 26.0051 10.3146C26.6093 10.5476 27.1196 10.8623 27.629 11.3718C28.1378 11.8814 28.4526 12.3932 28.6863 12.9959C28.9124 13.5795 29.0667 14.2456 29.1126 15.2211C29.1561 16.1989 29.1676 16.5098 29.1676 19C29.1676 21.4903 29.1584 21.8012 29.1126 22.779C29.0675 23.7545 28.9124 24.4198 28.6863 25.0042C28.4533 25.6085 28.1378 26.1187 27.629 26.6283C27.1196 27.137 26.607 27.4517 26.0051 27.6855C25.4207 27.9116 24.7553 28.0659 23.7799 28.1117C22.8021 28.1552 22.4911 28.1667 20.0009 28.1667C17.5106 28.1667 17.1997 28.1575 16.2219 28.1117C15.2464 28.0666 14.5819 27.9116 13.9967 27.6855C13.3933 27.4524 12.8822 27.137 12.3727 26.6283C11.8632 26.1187 11.5492 25.6062 11.3155 25.0042C11.0886 24.4198 10.9351 23.7545 10.8892 22.779C10.8457 21.8012 10.8342 21.4903 10.8342 19C10.8342 16.5098 10.8434 16.1989 10.8892 15.2211C10.9343 14.2448 11.0886 13.5802 11.3155 12.9959C11.5485 12.3924 11.8632 11.8814 12.3727 11.3718C12.8822 10.8623 13.394 10.5484 13.9967 10.3146C14.5811 10.0877 15.2457 9.93421 16.2219 9.88837C17.1997 9.84483 17.5106 9.83337 20.0009 9.83337Z" fill="#F8FAFC"/>
</svg>
