<svg width="40" height="38" viewBox="0 0 40 38" fill="none" xmlns="http://www.w3.org/2000/svg">
<rect width="40" height="38" rx="8" fill="#334155"/>
<path d="M12.6676 10.75H27.3343C27.8405 10.75 28.2509 11.1604 28.2509 11.6667V26.3333C28.2509 26.8396 27.8405 27.25 27.3343 27.25H12.6676C12.1613 27.25 11.7509 26.8396 11.7509 26.3333V11.6667C11.7509 11.1604 12.1613 10.75 12.6676 10.75ZM13.5842 12.5833V25.4167H26.4176V12.5833H13.5842ZM15.8759 16.25C15.1165 16.25 14.5009 15.6344 14.5009 14.875C14.5009 14.1156 15.1165 13.5 15.8759 13.5C16.6353 13.5 17.2509 14.1156 17.2509 14.875C17.2509 15.6344 16.6353 16.25 15.8759 16.25ZM14.9592 17.1667H16.7926V24.0417H14.9592V17.1667ZM20.0009 17.5604C20.5366 17.0432 21.161 16.7083 21.8343 16.7083C23.7327 16.7083 25.0426 18.2473 25.0426 20.1458V24.0417H23.2093V20.1458C23.2093 19.2599 22.4911 18.5417 21.6051 18.5417C20.7191 18.5417 20.0009 19.2599 20.0009 20.1458V24.0417H18.1676V17.1667H20.0009V17.5604Z" fill="#F8FAFC"/>
</svg>
