<svg width="42" height="38" viewBox="0 0 42 38" fill="none" xmlns="http://www.w3.org/2000/svg">
<rect width="42" height="38" rx="8" fill="#EFF6FF"/>
<path d="M19.1666 19H22.8333" stroke="#2563EB" stroke-width="2" stroke-linecap="round" stroke-linejoin="round"/>
<path d="M19.1666 15.3333H22.8333" stroke="#2563EB" stroke-width="2" stroke-linecap="round" stroke-linejoin="round"/>
<path d="M22.8333 27.25V24.5C22.8333 24.0138 22.6401 23.5475 22.2963 23.2036C21.9525 22.8598 21.4862 22.6667 21 22.6667C20.5137 22.6667 20.0474 22.8598 19.7036 23.2036C19.3598 23.5475 19.1666 24.0138 19.1666 24.5V27.25" stroke="#2563EB" stroke-width="2" stroke-linecap="round" stroke-linejoin="round"/>
<path d="M15.5 17.1667H13.6667C13.1805 17.1667 12.7142 17.3598 12.3703 17.7036C12.0265 18.0475 11.8334 18.5138 11.8334 19V25.4167C11.8334 25.9029 12.0265 26.3692 12.3703 26.713C12.7142 27.0569 13.1805 27.25 13.6667 27.25H28.3334C28.8196 27.25 29.2859 27.0569 29.6297 26.713C29.9736 26.3692 30.1667 25.9029 30.1667 25.4167V16.25C30.1667 15.7638 29.9736 15.2975 29.6297 14.9536C29.2859 14.6098 28.8196 14.4167 28.3334 14.4167H26.5" stroke="#2563EB" stroke-width="2" stroke-linecap="round" stroke-linejoin="round"/>
<path d="M15.5 27.25V12.5833C15.5 12.0971 15.6932 11.6308 16.037 11.287C16.3808 10.9432 16.8471 10.75 17.3333 10.75H24.6667C25.1529 10.75 25.6192 10.9432 25.963 11.287C26.3068 11.6308 26.5 12.0971 26.5 12.5833V27.25" stroke="#2563EB" stroke-width="2" stroke-linecap="round" stroke-linejoin="round"/>
</svg>
