<svg width="65" height="63" viewBox="0 0 65 63" fill="none" xmlns="http://www.w3.org/2000/svg">
<rect width="64.5779" height="62.0431" rx="12.9156" fill="#1D4ED8" fill-opacity="0.1"/>
<path d="M44.8489 29.5842C45.0876 29.4789 45.2902 29.3059 45.4315 29.0866C45.5728 28.8673 45.6467 28.6114 45.644 28.3505C45.6413 28.0897 45.5622 27.8353 45.4163 27.619C45.2705 27.4027 45.0644 27.2339 44.8236 27.1336L33.3956 21.9282C33.0482 21.7698 32.6708 21.6877 32.2889 21.6877C31.9071 21.6877 31.5297 21.7698 31.1822 21.9282L19.7556 27.1282C19.5182 27.2322 19.3163 27.4031 19.1745 27.62C19.0327 27.8369 18.9572 28.0904 18.9572 28.3496C18.9572 28.6087 19.0327 28.8622 19.1745 29.0791C19.3163 29.296 19.5182 29.4669 19.7556 29.5709L31.1822 34.7816C31.5297 34.94 31.9071 35.022 32.2889 35.022C32.6708 35.022 33.0482 34.94 33.3956 34.7816L44.8489 29.5842Z" stroke="#1D4ED8" stroke-width="2" stroke-linecap="round" stroke-linejoin="round"/>
<path d="M45.6223 28.3549V36.3549" stroke="#1D4ED8" stroke-width="2" stroke-linecap="round" stroke-linejoin="round"/>
<path d="M24.2889 31.6882V36.3549C24.2889 37.4157 25.1318 38.4332 26.6321 39.1833C28.1324 39.9334 30.1672 40.3549 32.2889 40.3549C34.4107 40.3549 36.4455 39.9334 37.9458 39.1833C39.4461 38.4332 40.2889 37.4157 40.2889 36.3549V31.6882" stroke="#1D4ED8" stroke-width="2" stroke-linecap="round" stroke-linejoin="round"/>
</svg>
