<svg width="65" height="63" viewBox="0 0 65 63" fill="none" xmlns="http://www.w3.org/2000/svg">
<rect width="64.5779" height="62.0431" rx="12.9156" fill="#DC2626" fill-opacity="0.1"/>
<path d="M18.9556 27.6882C18.9556 26.2045 19.4057 24.7557 20.2464 23.5331C21.0871 22.3105 22.2789 21.3718 23.6644 20.8407C25.0498 20.3097 26.5638 20.2115 28.0062 20.5589C29.4487 20.9064 30.7519 21.6833 31.7436 22.7869C31.8134 22.8616 31.8979 22.9211 31.9917 22.9618C32.0855 23.0025 32.1866 23.0235 32.2889 23.0235C32.3912 23.0235 32.4923 23.0025 32.5861 22.9618C32.6799 22.9211 32.7644 22.8616 32.8342 22.7869C33.8228 21.6761 35.1263 20.8927 36.5711 20.541C38.0159 20.1893 39.5336 20.286 40.9221 20.8182C42.3106 21.3504 43.5041 22.2928 44.3437 23.5201C45.1834 24.7473 45.6293 26.2012 45.6222 27.6882C45.6222 30.7415 43.6222 33.0215 41.6222 35.0215L34.2996 42.1055C34.0511 42.3909 33.7448 42.6201 33.401 42.778C33.0571 42.9358 32.6836 43.0187 32.3053 43.0211C31.9269 43.0235 31.5524 42.9453 31.2066 42.7918C30.8608 42.6384 30.5516 42.4131 30.2996 42.1309L22.9556 35.0215C20.9556 33.0215 18.9556 30.7549 18.9556 27.6882Z" stroke="#DC2626" stroke-width="2" stroke-linecap="round" stroke-linejoin="round"/>
</svg>
