<svg width="42" height="38" viewBox="0 0 42 38" fill="none" xmlns="http://www.w3.org/2000/svg">
<rect width="42" height="38" rx="8" fill="#EFF6FF"/>
<path d="M24.6667 27.25V25.4167C24.6667 24.4442 24.2804 23.5116 23.5928 22.8239C22.9051 22.1363 21.9725 21.75 21 21.75H15.5C14.5276 21.75 13.5949 22.1363 12.9073 22.8239C12.2197 23.5116 11.8334 24.4442 11.8334 25.4167V27.25" stroke="#2563EB" stroke-width="2" stroke-linecap="round" stroke-linejoin="round"/>
<path d="M24.6666 10.8673C25.4529 11.0712 26.1492 11.5303 26.6463 12.1727C27.1434 12.8151 27.4131 13.6044 27.4131 14.4167C27.4131 15.2289 27.1434 16.0182 26.6463 16.6606C26.1492 17.303 25.4529 17.7622 24.6666 17.966" stroke="#2563EB" stroke-width="2" stroke-linecap="round" stroke-linejoin="round"/>
<path d="M30.1666 27.25V25.4167C30.166 24.6043 29.8956 23.815 29.3979 23.173C28.9001 22.5309 28.2032 22.0723 27.4166 21.8692" stroke="#2563EB" stroke-width="2" stroke-linecap="round" stroke-linejoin="round"/>
<path d="M18.25 18.0833C20.2751 18.0833 21.9167 16.4417 21.9167 14.4167C21.9167 12.3916 20.2751 10.75 18.25 10.75C16.225 10.75 14.5834 12.3916 14.5834 14.4167C14.5834 16.4417 16.225 18.0833 18.25 18.0833Z" stroke="#2563EB" stroke-width="2" stroke-linecap="round" stroke-linejoin="round"/>
</svg>
