<svg width="65" height="63" viewBox="0 0 65 63" fill="none" xmlns="http://www.w3.org/2000/svg">
<rect width="64.5779" height="62.0431" rx="12.9156" fill="#CB30E0" fill-opacity="0.1"/>
<path d="M32.2889 44.3549C28.7527 44.3549 25.3613 42.9501 22.8608 40.4496C20.3603 37.9492 18.9556 34.5578 18.9556 31.0215C18.9556 27.4853 20.3603 24.0939 22.8608 21.5935C25.3613 19.093 28.7527 17.6882 32.2889 17.6882C35.8251 17.6882 39.2165 18.9525 41.717 21.2029C44.2175 23.4534 45.6222 26.5056 45.6222 29.6882C45.6222 31.4563 44.9199 33.152 43.6696 34.4023C42.4194 35.6525 40.7237 36.3549 38.9556 36.3549H35.9556C35.5222 36.3549 35.0975 36.4755 34.7289 36.7034C34.3602 36.9312 34.0624 37.2571 33.8686 37.6447C33.6748 38.0323 33.5927 38.4662 33.6317 38.8978C33.6706 39.3293 33.8289 39.7416 34.0889 40.0882L34.4889 40.6216C34.7489 40.9682 34.9072 41.3804 34.9461 41.812C34.9851 42.2436 34.903 42.6775 34.7092 43.065C34.5154 43.4526 34.2175 43.7786 33.8489 44.0064C33.4803 44.2342 33.0556 44.3549 32.6222 44.3549H32.2889Z" stroke="#CB30E0" stroke-width="2" stroke-linecap="round" stroke-linejoin="round"/>
<path d="M34.289 24.3549C34.6572 24.3549 34.9556 24.0564 34.9556 23.6882C34.9556 23.32 34.6572 23.0215 34.289 23.0215C33.9208 23.0215 33.6223 23.32 33.6223 23.6882C33.6223 24.0564 33.9208 24.3549 34.289 24.3549Z" fill="#CB30E0" stroke="#CB30E0" stroke-width="2" stroke-linecap="round" stroke-linejoin="round"/>
<path d="M39.6222 29.6882C39.9904 29.6882 40.2889 29.3897 40.2889 29.0215C40.2889 28.6534 39.9904 28.3549 39.6222 28.3549C39.254 28.3549 38.9556 28.6534 38.9556 29.0215C38.9556 29.3897 39.254 29.6882 39.6222 29.6882Z" fill="#CB30E0" stroke="#CB30E0" stroke-width="2" stroke-linecap="round" stroke-linejoin="round"/>
<path d="M24.9556 32.3549C25.3238 32.3549 25.6223 32.0564 25.6223 31.6882C25.6223 31.32 25.3238 31.0215 24.9556 31.0215C24.5874 31.0215 24.2889 31.32 24.2889 31.6882C24.2889 32.0564 24.5874 32.3549 24.9556 32.3549Z" fill="#CB30E0" stroke="#CB30E0" stroke-width="2" stroke-linecap="round" stroke-linejoin="round"/>
<path d="M27.6222 25.6882C27.9904 25.6882 28.2889 25.3897 28.2889 25.0215C28.2889 24.6534 27.9904 24.3549 27.6222 24.3549C27.254 24.3549 26.9556 24.6534 26.9556 25.0215C26.9556 25.3897 27.254 25.6882 27.6222 25.6882Z" fill="#CB30E0" stroke="#CB30E0" stroke-width="2" stroke-linecap="round" stroke-linejoin="round"/>
</svg>
