<svg width="65" height="63" viewBox="0 0 65 63" fill="none" xmlns="http://www.w3.org/2000/svg">
<rect width="64.5779" height="62.0431" rx="12.9156" fill="#F59E0B" fill-opacity="0.1"/>
<path d="M35.8889 23.4215C35.6446 23.6708 35.5078 24.0059 35.5078 24.3549C35.5078 24.7039 35.6446 25.039 35.8889 25.2882L38.0222 27.4215C38.2715 27.6658 38.6066 27.8027 38.9556 27.8027C39.3046 27.8027 39.6397 27.6658 39.8889 27.4215L44.0302 23.2815C44.4569 22.8522 45.1809 22.9882 45.3409 23.5722C45.7438 25.0374 45.721 26.587 45.2753 28.0397C44.8296 29.4924 43.9793 30.7881 42.8241 31.7752C41.6688 32.7623 40.2564 33.4 38.7519 33.6136C37.2475 33.8273 35.7133 33.608 34.3289 32.9815L23.7822 43.5282C23.2518 44.0585 22.5325 44.3563 21.7824 44.3562C21.0324 44.356 20.3132 44.058 19.7829 43.5275C19.2527 42.9971 18.9548 42.2778 18.955 41.5277C18.9551 40.7777 19.2531 40.0585 19.7836 39.5282L30.3302 28.9815C29.7038 27.5972 29.4845 26.063 29.6982 24.5585C29.9118 23.0541 30.5495 21.6416 31.5366 20.4864C32.5237 19.3311 33.8194 18.4809 35.2721 18.0352C36.7248 17.5895 38.2744 17.5667 39.7396 17.9695C40.3236 18.1295 40.4596 18.8522 40.0316 19.2815L35.8889 23.4215Z" stroke="#F59E0B" stroke-width="2" stroke-linecap="round" stroke-linejoin="round"/>
</svg>
